<svg width="16" height="14" viewBox="0 0 16 14" fill="none" xmlns="http://www.w3.org/2000/svg">
<path id="Vector" d="M15.75 11.4375C15.75 12.4717 14.9092 13.3125 13.875 13.3125H2.625C1.59082 13.3125 0.75 12.4717 0.75 11.4375V2.0625C0.75 1.02832 1.59082 0.1875 2.625 0.1875H6.375C6.96387 0.1875 7.52051 0.46582 7.875 0.9375L8.4375 1.6875C8.61328 1.9248 8.8916 2.0625 9.1875 2.0625H13.875C14.9092 2.0625 15.75 2.90332 15.75 3.9375V11.4375ZM7.54688 10.2656C7.54688 10.6553 7.86035 10.9688 8.25 10.9688C8.63965 10.9688 8.95312 10.6553 8.95312 10.2656V8.39062H10.8281C11.2178 8.39062 11.5312 8.07715 11.5312 7.6875C11.5312 7.29785 11.2178 6.98438 10.8281 6.98438H8.95312V5.10938C8.95312 4.71973 8.63965 4.40625 8.25 4.40625C7.86035 4.40625 7.54688 4.71973 7.54688 5.10938V6.98438H5.67188C5.28223 6.98438 4.96875 7.29785 4.96875 7.6875C4.96875 8.07715 5.28223 8.39062 5.67188 8.39062H7.54688V10.2656Z" fill="white"/>
</svg>
