<svg width="20" height="18" viewBox="0 0 20 18" fill="none" xmlns="http://www.w3.org/2000/svg">
<path id="Vector" d="M0 2.33355C0 1.10786 0.996528 0.111328 2.22222 0.111328H7.77778V4.55577C7.77778 5.17036 8.27431 5.66688 8.88889 5.66688H13.3333V7.00716C10.7674 7.73286 8.88889 10.0905 8.88889 12.8891C8.88889 14.9412 9.89931 16.7537 11.4479 17.8648C11.3368 17.8822 11.2257 17.8891 11.1111 17.8891H2.22222C0.996528 17.8891 0 16.8926 0 15.6669V2.33355ZM13.3333 4.55577H8.88889V0.111328L13.3333 4.55577ZM15 7.88911C16.3261 7.88911 17.5979 8.41589 18.5355 9.35357C19.4732 10.2913 20 11.563 20 12.8891C20 14.2152 19.4732 15.487 18.5355 16.4246C17.5979 17.3623 16.3261 17.8891 15 17.8891C13.6739 17.8891 12.4021 17.3623 11.4645 16.4246C10.5268 15.487 10 14.2152 10 12.8891C10 11.563 10.5268 10.2913 11.4645 9.35357C12.4021 8.41589 13.6739 7.88911 15 7.88911ZM15.5556 10.6669C15.5556 10.3613 15.3056 10.1113 15 10.1113C14.6944 10.1113 14.4444 10.3613 14.4444 10.6669V12.3336H12.7778C12.4722 12.3336 12.2222 12.5836 12.2222 12.8891C12.2222 13.1947 12.4722 13.4447 12.7778 13.4447H14.4444V15.1113C14.4444 15.4169 14.6944 15.6669 15 15.6669C15.3056 15.6669 15.5556 15.4169 15.5556 15.1113V13.4447H17.2222C17.5278 13.4447 17.7778 13.1947 17.7778 12.8891C17.7778 12.5836 17.5278 12.3336 17.2222 12.3336H15.5556V10.6669Z" fill="#8E9090"/>
</svg>
