<svg width="18" height="20" viewBox="0 0 18 20" fill="none" xmlns="http://www.w3.org/2000/svg">
<path id="Vector" d="M5.63036 0.691406C5.83527 0.265625 6.25647 0 6.71563 0H11.2844C11.7435 0 12.1647 0.265625 12.3696 0.691406L12.6429 1.25H16.2857C16.9574 1.25 17.5 1.80859 17.5 2.5C17.5 3.19141 16.9574 3.75 16.2857 3.75H1.71429C1.04263 3.75 0.5 3.19141 0.5 2.5C0.5 1.80859 1.04263 1.25 1.71429 1.25H5.35714L5.63036 0.691406ZM1.71429 5H16.2857V17.5C16.2857 18.8789 15.1967 20 13.8571 20H4.14286C2.80335 20 1.71429 18.8789 1.71429 17.5V5ZM5.35714 7.5C5.02321 7.5 4.75 7.78125 4.75 8.125V16.875C4.75 17.2188 5.02321 17.5 5.35714 17.5C5.69107 17.5 5.96429 17.2188 5.96429 16.875V8.125C5.96429 7.78125 5.69107 7.5 5.35714 7.5ZM9 7.5C8.66607 7.5 8.39286 7.78125 8.39286 8.125V16.875C8.39286 17.2188 8.66607 17.5 9 17.5C9.33393 17.5 9.60714 17.2188 9.60714 16.875V8.125C9.60714 7.78125 9.33393 7.5 9 7.5ZM12.6429 7.5C12.3089 7.5 12.0357 7.78125 12.0357 8.125V16.875C12.0357 17.2188 12.3089 17.5 12.6429 17.5C12.9768 17.5 13.25 17.2188 13.25 16.875V8.125C13.25 7.78125 12.9768 7.5 12.6429 7.5Z" fill="#8E9090"/>
</svg>
