<svg width="16" height="12" viewBox="0 0 16 12" fill="none" xmlns="http://www.w3.org/2000/svg">
<path id="Vector" d="M6.69214 11.3938C6.97339 11.4906 7.27547 11.2893 7.27547 10.9989V1.38443C7.27547 1.27743 7.23381 1.17043 7.14526 1.10419C6.63485 0.706776 5.46297 0.197266 3.94214 0.197266C2.62703 0.197266 1.39787 0.53609 0.663493 0.811226C0.369222 0.923319 0.192139 1.20864 0.192139 1.5169V10.9505C0.192139 11.2537 0.525472 11.4651 0.819743 11.3708C1.64006 11.1033 2.93953 10.7951 3.94214 10.7951C4.82495 10.7951 5.99943 11.1517 6.69214 11.3938ZM8.69214 11.3938C9.38485 11.1517 10.5593 10.7951 11.4421 10.7951C12.4447 10.7951 13.7442 11.1033 14.5645 11.3708C14.8588 11.4676 15.1921 11.2537 15.1921 10.9505V1.5169C15.1921 1.20864 15.0151 0.923319 14.7208 0.813774C13.9864 0.53609 12.7572 0.197266 11.4421 0.197266C9.9213 0.197266 8.74943 0.706776 8.23901 1.10419C8.15308 1.17043 8.10881 1.27743 8.10881 1.38443V10.9989C8.10881 11.2893 8.41349 11.4906 8.69214 11.3938Z" fill="url(#paint0_linear_632_2389)"/>
<defs>
<linearGradient id="paint0_linear_632_2389" x1="7.69214" y1="0.197266" x2="7.69214" y2="11.4183" gradientUnits="userSpaceOnUse">
<stop stop-color="#FDED4F"/>
<stop offset="1" stop-color="#FFB649"/>
</linearGradient>
</defs>
</svg>
