<svg width="20" height="18" viewBox="0 0 20 18" fill="none" xmlns="http://www.w3.org/2000/svg">
<path id="Vector" d="M20 15.25C20 16.6289 18.8789 17.75 17.5 17.75H2.5C1.12109 17.75 0 16.6289 0 15.25V2.75C0 1.37109 1.12109 0.25 2.5 0.25H7.5C8.28516 0.25 9.02734 0.621094 9.5 1.25L10.25 2.25C10.4844 2.56641 10.8555 2.75 11.25 2.75H17.5C18.8789 2.75 20 3.87109 20 5.25V15.25ZM9.0625 13.6875C9.0625 14.207 9.48047 14.625 10 14.625C10.5195 14.625 10.9375 14.207 10.9375 13.6875V11.1875H13.4375C13.957 11.1875 14.375 10.7695 14.375 10.25C14.375 9.73047 13.957 9.3125 13.4375 9.3125H10.9375V6.8125C10.9375 6.29297 10.5195 5.875 10 5.875C9.48047 5.875 9.0625 6.29297 9.0625 6.8125V9.3125H6.5625C6.04297 9.3125 5.625 9.73047 5.625 10.25C5.625 10.7695 6.04297 11.1875 6.5625 11.1875H9.0625V13.6875Z" fill="#8E9090"/>
</svg>
