<svg width="52" height="52" viewBox="0 0 52 52" fill="none" xmlns="http://www.w3.org/2000/svg">
<mask id="path-1-inside-1_583_2859" fill="white">
<path d="M0 4C0 1.79086 1.79086 0 4 0H48C50.2091 0 52 1.79086 52 4V48C52 50.2091 50.2091 52 48 52H4C1.79086 52 0 50.2091 0 48V4Z"/>
</mask>
<path d="M24.5 39C24.5 39.8284 25.1716 40.5 26 40.5C26.8284 40.5 27.5 39.8284 27.5 39L24.5 39ZM27.0607 11.9393C26.4749 11.3536 25.5251 11.3536 24.9393 11.9393L15.3934 21.4853C14.8076 22.0711 14.8076 23.0208 15.3934 23.6066C15.9792 24.1924 16.9289 24.1924 17.5147 23.6066L26 15.1213L34.4853 23.6066C35.0711 24.1924 36.0208 24.1924 36.6066 23.6066C37.1924 23.0208 37.1924 22.0711 36.6066 21.4853L27.0607 11.9393ZM27.5 39L27.5 13L24.5 13L24.5 39L27.5 39ZM4 3H48V-3H4V3ZM49 4V48H55V4H49ZM48 49H4V55H48V49ZM3 48V4H-3V48H3ZM4 49C3.44772 49 3 48.5523 3 48H-3C-3 51.866 0.134006 55 4 55V49ZM49 48C49 48.5523 48.5523 49 48 49V55C51.866 55 55 51.866 55 48H49ZM48 3C48.5523 3 49 3.44772 49 4H55C55 0.134007 51.866 -3 48 -3V3ZM4 -3C0.134007 -3 -3 0.134006 -3 4H3C3 3.44772 3.44772 3 4 3V-3Z" fill="#FEB447" mask="url(#path-1-inside-1_583_2859)"/>
</svg>
