<svg width="20" height="17" viewBox="0 0 20 17" fill="none" xmlns="http://www.w3.org/2000/svg">
<path id="Vector" d="M9.99827 0.5C7.19295 0.5 4.94662 1.81429 3.31135 3.37857C1.68649 4.92857 0.599774 6.78571 0.0859301 8.06071C-0.0286433 8.34286 -0.0286433 8.65714 0.0859301 8.93929C0.599774 10.2143 1.68649 12.0714 3.31135 13.6214C4.94662 15.1857 7.19295 16.5 9.99827 16.5C12.8036 16.5 15.0499 15.1857 16.6852 13.6214C18.31 12.0679 19.3968 10.2143 19.9141 8.93929C20.0286 8.65714 20.0286 8.34286 19.9141 8.06071C19.3968 6.78571 18.31 4.92857 16.6852 3.37857C15.0499 1.81429 12.8036 0.5 9.99827 0.5ZM4.9987 8.5C4.9987 7.13603 5.52544 5.82792 6.46304 4.86345C7.40064 3.89898 8.6723 3.35714 9.99827 3.35714C11.3242 3.35714 12.5959 3.89898 13.5335 4.86345C14.4711 5.82792 14.9978 7.13603 14.9978 8.5C14.9978 9.86397 14.4711 11.1721 13.5335 12.1365C12.5959 13.101 11.3242 13.6429 9.99827 13.6429C8.6723 13.6429 7.40064 13.101 6.46304 12.1365C5.52544 11.1721 4.9987 9.86397 4.9987 8.5ZM9.99827 6.21429C9.99827 7.475 9.00182 8.5 7.77624 8.5C7.52973 8.5 7.29364 8.45714 7.07144 8.38214C6.88048 8.31786 6.65828 8.43929 6.66522 8.64643C6.67564 8.89286 6.71036 9.13929 6.77632 9.38571C7.25198 11.2143 9.08168 12.3 10.8593 11.8107C12.6369 11.3214 13.6924 9.43929 13.2167 7.61071C12.8314 6.12857 11.5572 5.13214 10.1406 5.07143C9.93924 5.06429 9.8212 5.28929 9.88369 5.48929C9.9566 5.71786 9.99827 5.96071 9.99827 6.21429Z" fill="#8E9090"/>
</svg>
