<svg width="16" height="13" viewBox="0 0 16 13" fill="none" xmlns="http://www.w3.org/2000/svg">
<path id="Vector" d="M7.61393 0.891602C5.51502 0.891602 3.83433 1.87494 2.61083 3.04533C1.39512 4.20503 0.582048 5.59453 0.197593 6.54847C0.11187 6.75957 0.11187 6.99472 0.197593 7.20581C0.582048 8.15976 1.39512 9.54926 2.61083 10.709C3.83433 11.8793 5.51502 12.8627 7.61393 12.8627C9.71285 12.8627 11.3935 11.8793 12.617 10.709C13.8327 9.54659 14.6458 8.15976 15.0329 7.20581C15.1186 6.99472 15.1186 6.75957 15.0329 6.54847C14.6458 5.59453 13.8327 4.20503 12.617 3.04533C11.3935 1.87494 9.71285 0.891602 7.61393 0.891602ZM3.87329 6.87714C3.87329 5.85663 4.26739 4.87792 4.9689 4.1563C5.67041 3.43469 6.62185 3.0293 7.61393 3.0293C8.60601 3.0293 9.55746 3.43469 10.259 4.1563C10.9605 4.87792 11.3546 5.85663 11.3546 6.87714C11.3546 7.89766 10.9605 8.87637 10.259 9.59798C9.55746 10.3196 8.60601 10.725 7.61393 10.725C6.62185 10.725 5.67041 10.3196 4.9689 9.59798C4.26739 8.87637 3.87329 7.89766 3.87329 6.87714ZM7.61393 5.16699C7.61393 6.11025 6.8684 6.87714 5.95142 6.87714C5.76699 6.87714 5.59035 6.84508 5.4241 6.78896C5.28123 6.74087 5.11498 6.83172 5.12017 6.9867C5.12796 7.17108 5.15394 7.35545 5.2033 7.53983C5.55918 8.90795 6.92815 9.72028 8.25815 9.3542C9.58816 8.98812 10.3778 7.57991 10.022 6.21179C9.73363 5.10286 8.78028 4.35734 7.72044 4.31191C7.56977 4.30657 7.48145 4.47491 7.52821 4.62455C7.58276 4.79556 7.61393 4.97727 7.61393 5.16699Z" fill="url(#paint0_linear_848_2754)"/>
<defs>
<linearGradient id="paint0_linear_848_2754" x1="7.61523" y1="0.891602" x2="7.61523" y2="12.8627" gradientUnits="userSpaceOnUse">
<stop stop-color="#FDED4F"/>
<stop offset="1" stop-color="#FFB649"/>
</linearGradient>
</defs>
</svg>
