<svg width="17" height="17" viewBox="0 0 17 17" fill="none" xmlns="http://www.w3.org/2000/svg">
<g id="Pen">
<path id="Vector" d="M11.8406 1.03659L10.3659 2.51119L14.3269 6.47189L15.8016 4.99729C16.5633 4.23562 16.5633 3.00171 15.8016 2.24003L14.6011 1.03659C13.8394 0.274914 12.6053 0.274914 11.8436 1.03659H11.8406ZM9.67725 3.19974L2.57484 10.3046C2.25796 10.6215 2.02639 11.0145 1.89842 11.4441L0.819809 15.1093C0.743636 15.3682 0.813715 15.6455 1.00262 15.8344C1.19153 16.0233 1.46881 16.0934 1.72475 16.0202L5.39021 14.9417C5.81983 14.8137 6.21288 14.5822 6.52976 14.2653L13.6383 7.16045L9.67725 3.19974Z" fill="url(#paint0_linear_848_2097)"/>
</g>
<defs>
<linearGradient id="paint0_linear_848_2097" x1="8.58122" y1="0.465332" x2="8.58122" y2="16.0487" gradientUnits="userSpaceOnUse">
<stop stop-color="#FDED4F"/>
<stop offset="1" stop-color="#FFB649"/>
</linearGradient>
</defs>
</svg>
