<svg width="20" height="18" viewBox="0 0 20 18" fill="none" xmlns="http://www.w3.org/2000/svg">
<path id="Vector" d="M1.85938 10.5361L8.91797 17.126C9.21094 17.3994 9.59766 17.5517 10 17.5517C10.4023 17.5517 10.7891 17.3994 11.082 17.126L18.1406 10.5361C19.3281 9.43065 20 7.87986 20 6.25877V6.03221C20 3.30174 18.0273 0.973613 15.3359 0.524394C13.5547 0.227519 11.7422 0.809551 10.4688 2.08299L10 2.55174L9.53125 2.08299C8.25781 0.809551 6.44531 0.227519 4.66406 0.524394C1.97266 0.973613 0 3.30174 0 6.03221V6.25877C0 7.87986 0.671875 9.43065 1.85938 10.5361Z" fill="#8E9090"/>
</svg>
