<svg width="13" height="13" viewBox="0 0 13 13" fill="none" xmlns="http://www.w3.org/2000/svg">
<path id="Vector" d="M7.28369 1.34375C7.28369 0.825195 6.86475 0.40625 6.34619 0.40625C5.82764 0.40625 5.40869 0.825195 5.40869 1.34375V5.5625H1.18994C0.671387 5.5625 0.252441 5.98145 0.252441 6.5C0.252441 7.01855 0.671387 7.4375 1.18994 7.4375H5.40869V11.6562C5.40869 12.1748 5.82764 12.5938 6.34619 12.5938C6.86475 12.5938 7.28369 12.1748 7.28369 11.6562V7.4375H11.5024C12.021 7.4375 12.4399 7.01855 12.4399 6.5C12.4399 5.98145 12.021 5.5625 11.5024 5.5625H7.28369V1.34375Z" fill="white"/>
</svg>
