<svg width="20" height="20" viewBox="0 0 20 20" fill="none" xmlns="http://www.w3.org/2000/svg">
<path id="Vector" d="M19.3748 6.50908C19.4998 6.84899 19.3943 7.22797 19.1247 7.47021L17.433 9.00957C17.476 9.33385 17.4994 9.66595 17.4994 10.002C17.4994 10.338 17.476 10.6701 17.433 10.9943L19.1247 12.5337C19.3943 12.7759 19.4998 13.1549 19.3748 13.4948C19.2029 13.9598 18.9958 14.4052 18.7575 14.8349L18.5738 15.1514C18.316 15.5812 18.0269 15.9875 17.7104 16.3704C17.4799 16.6517 17.097 16.7455 16.7532 16.6361L14.577 15.9445C14.0534 16.3469 13.4752 16.6829 12.8579 16.9369L12.3695 19.1678C12.2914 19.5233 12.0179 19.8046 11.6584 19.8633C11.1193 19.9531 10.5645 20 9.99794 20C9.43143 20 8.87663 19.9531 8.33746 19.8633C7.97802 19.8046 7.70453 19.5233 7.62639 19.1678L7.13801 16.9369C6.5207 16.6829 5.94246 16.3469 5.41892 15.9445L3.24663 16.64C2.90281 16.7494 2.51992 16.6517 2.28941 16.3743C1.97294 15.9914 1.68382 15.5851 1.42596 15.1553L1.24233 14.8388C1.004 14.4091 0.796929 13.9637 0.62502 13.4987C0.499996 13.1588 0.605485 12.7798 0.875069 12.5376L2.56681 10.9982C2.52383 10.6701 2.50039 10.338 2.50039 10.002C2.50039 9.66595 2.52383 9.33385 2.56681 9.00957L0.875069 7.47021C0.605485 7.22797 0.499996 6.84899 0.62502 6.50908C0.796929 6.04415 1.004 5.59875 1.24233 5.16898L1.42596 4.85251C1.68382 4.42274 1.97294 4.01641 2.28941 3.63352C2.51992 3.35222 2.90281 3.25845 3.24663 3.36785L5.42283 4.05939C5.94637 3.65696 6.52461 3.32096 7.14192 3.06701L7.63029 0.836101C7.70843 0.480563 7.98193 0.199258 8.34137 0.140652C8.88054 0.0468842 9.43533 0 10.0019 0C10.5684 0 11.1232 0.0468842 11.6623 0.136745C12.0218 0.195351 12.2953 0.476656 12.3734 0.832194L12.8618 3.0631C13.4791 3.31705 14.0573 3.65306 14.5809 4.05548L16.7571 3.36394C17.1009 3.25454 17.4838 3.35222 17.7143 3.62962C18.0308 4.0125 18.3199 4.41883 18.5777 4.8486L18.7614 5.16507C18.9997 5.59484 19.2068 6.04024 19.3787 6.50518L19.3748 6.50908ZM10.0019 13.1276C10.8308 13.1276 11.6258 12.7983 12.212 12.2121C12.7982 11.6259 13.1275 10.8309 13.1275 10.002C13.1275 9.17299 12.7982 8.37798 12.212 7.79181C11.6258 7.20565 10.8308 6.87634 10.0019 6.87634C9.17289 6.87634 8.37788 7.20565 7.79171 7.79181C7.20555 8.37798 6.87624 9.17299 6.87624 10.002C6.87624 10.8309 7.20555 11.6259 7.79171 12.2121C8.37788 12.7983 9.17289 13.1276 10.0019 13.1276Z" fill="#8E9090"/>
</svg>
