<svg width="20" height="20" viewBox="0 0 20 20" fill="none" xmlns="http://www.w3.org/2000/svg">
<g id="Share">
<path id="Vector" d="M15.7143 8.57143C18.0804 8.57143 20 6.65179 20 4.28571C20 1.91964 18.0804 0 15.7143 0C13.3482 0 11.4286 1.91964 11.4286 4.28571C11.4286 4.46429 11.4375 4.64286 11.4598 4.81696L7.25893 6.91518C6.49107 6.16964 5.44196 5.71429 4.28571 5.71429C1.91964 5.71429 0 7.63393 0 10C0 12.3661 1.91964 14.2857 4.28571 14.2857C5.44196 14.2857 6.49107 13.8304 7.25893 13.0848L11.4598 15.183C11.4375 15.3571 11.4286 15.5312 11.4286 15.7143C11.4286 18.0804 13.3482 20 15.7143 20C18.0804 20 20 18.0804 20 15.7143C20 13.3482 18.0804 11.4286 15.7143 11.4286C14.558 11.4286 13.5089 11.8839 12.7411 12.6295L8.54018 10.5312C8.5625 10.3571 8.57143 10.183 8.57143 10C8.57143 9.81696 8.5625 9.64286 8.54018 9.46875L12.7411 7.37054C13.5089 8.11607 14.558 8.57143 15.7143 8.57143Z" fill="#8E9090"/>
</g>
</svg>
