<svg width="20" height="18" viewBox="0 0 20 18" fill="none" xmlns="http://www.w3.org/2000/svg">
<path id="Vector" d="M2.22222 1.125C2.22222 0.502734 1.72569 0 1.11111 0C0.496528 0 0 0.502734 0 1.125V13.5C0 14.741 0.996528 15.75 2.22222 15.75H8.88889V13.5H2.22222V5.625H8.88889V3.375H2.22222V1.125ZM10 6.75C10 7.37227 10.4965 7.875 11.1111 7.875H18.8889C19.5035 7.875 20 7.37227 20 6.75V2.25C20 1.62773 19.5035 1.125 18.8889 1.125H15.4618C15.1667 1.125 14.8854 1.00547 14.6771 0.794531L14.2153 0.330469C14.0069 0.119531 13.7257 0 13.4306 0H11.1111C10.4965 0 10 0.502734 10 1.125V6.75ZM10 16.875C10 17.4973 10.4965 18 11.1111 18H18.8889C19.5035 18 20 17.4973 20 16.875V12.375C20 11.7527 19.5035 11.25 18.8889 11.25H15.4618C15.1667 11.25 14.8854 11.1305 14.6771 10.9195L14.2153 10.452C14.0069 10.241 13.7257 10.1215 13.4306 10.1215H11.1111C10.4965 10.1215 10 10.6242 10 11.2465V16.875Z" fill="white"/>
</svg>
