<svg width="20" height="20" viewBox="0 0 20 20" fill="none" xmlns="http://www.w3.org/2000/svg">
<g id="Upload">
<path id="Vector" d="M11.25 4.26876V13.7497C11.25 14.4411 10.6914 14.9998 10 14.9998C9.30859 14.9998 8.75 14.4411 8.75 13.7497V4.26876L5.88281 7.13609C5.39453 7.6244 4.60156 7.6244 4.11328 7.13609C3.625 6.64779 3.625 5.85478 4.11328 5.36647L9.11328 0.366229C9.60156 -0.122076 10.3945 -0.122076 10.8828 0.366229L15.8828 5.36647C16.3711 5.85478 16.3711 6.64779 15.8828 7.13609C15.3945 7.6244 14.6016 7.6244 14.1133 7.13609L11.25 4.26876ZM2.5 13.7497H7.5C7.5 15.1287 8.62109 16.2498 10 16.2498C11.3789 16.2498 12.5 15.1287 12.5 13.7497H17.5C18.8789 13.7497 20 14.8708 20 16.2498V17.4999C20 18.8789 18.8789 20 17.5 20H2.5C1.12109 20 0 18.8789 0 17.4999V16.2498C0 14.8708 1.12109 13.7497 2.5 13.7497ZM16.875 17.8124C17.1236 17.8124 17.3621 17.7136 17.5379 17.5378C17.7137 17.362 17.8125 17.1235 17.8125 16.8748C17.8125 16.6262 17.7137 16.3877 17.5379 16.2119C17.3621 16.0361 17.1236 15.9373 16.875 15.9373C16.6264 15.9373 16.3879 16.0361 16.2121 16.2119C16.0363 16.3877 15.9375 16.6262 15.9375 16.8748C15.9375 17.1235 16.0363 17.362 16.2121 17.5378C16.3879 17.7136 16.6264 17.8124 16.875 17.8124Z" fill="#8E9090"/>
</g>
</svg>
