<svg width="5" height="15" viewBox="0 0 5 15" fill="none" xmlns="http://www.w3.org/2000/svg">
<path id="Vector" d="M2.75011 11.1111C2.23441 11.1111 1.73983 11.316 1.37518 11.6806C1.01052 12.0453 0.805664 12.5399 0.805664 13.0556C0.805664 13.5713 1.01052 14.0658 1.37518 14.4305C1.73983 14.7951 2.23441 15 2.75011 15C3.26581 15 3.76038 14.7951 4.12504 14.4305C4.48969 14.0658 4.69455 13.5713 4.69455 13.0556C4.69455 12.5399 4.48969 12.0453 4.12504 11.6806C3.76038 11.316 3.26581 11.1111 2.75011 11.1111ZM2.75011 5.55556C2.23441 5.55556 1.73983 5.76042 1.37518 6.12507C1.01052 6.48972 0.805664 6.9843 0.805664 7.5C0.805664 8.0157 1.01052 8.51028 1.37518 8.87493C1.73983 9.23958 2.23441 9.44444 2.75011 9.44444C3.26581 9.44444 3.76038 9.23958 4.12504 8.87493C4.48969 8.51028 4.69455 8.0157 4.69455 7.5C4.69455 6.9843 4.48969 6.48972 4.12504 6.12507C3.76038 5.76042 3.26581 5.55556 2.75011 5.55556ZM4.69455 1.94444C4.69455 1.42875 4.48969 0.934169 4.12504 0.569515C3.76038 0.204861 3.26581 0 2.75011 0C2.23441 0 1.73983 0.204861 1.37518 0.569515C1.01052 0.934169 0.805664 1.42875 0.805664 1.94444C0.805664 2.46014 1.01052 2.95472 1.37518 3.31937C1.73983 3.68403 2.23441 3.88889 2.75011 3.88889C3.26581 3.88889 3.76038 3.68403 4.12504 3.31937C4.48969 2.95472 4.69455 2.46014 4.69455 1.94444Z" fill="#8E9090"/>
</svg>
