<svg width="1440" height="1024" viewBox="0 0 1440 1024" fill="none" xmlns="http://www.w3.org/2000/svg">
<path d="M-3984.03 850.305L-3866.06 991.993C-3747.78 1136.55 -3515.18 1415.94 -3285.81 1586.76C-3064.32 1758.46 -2854.81 1808.03 -2666.29 1673.31C-2473.94 1533.81 -2303.3 1210.08 -2106.89 1147.1C-1907.3 1086.67 -1676.85 1293.69 -1454.89 1463.15C-1232.52 1629.66 -1014.98 1765.49 -815.582 1663.69C-624.791 1562.85 -455.582 1239.28 -275.976 1023.49C-92.7835 807.3 103.819 713.074 304.485 688.833C507.06 668.739 714.416 718.55 905.93 545.013C1089.55 372.344 1248.58 -37.2326 1449.72 -57.1693C1654.69 -81.8839 1901.05 283.12 2118.52 411.69C2338.14 540.024 2536.18 445.64 2715.79 229.847C2895.39 14.0536 3063.17 -309.353 3268.01 -295.571C3477.88 -282.341 3723.53 82.7422 3957.8 364.123C4195.26 648.059 4425.71 855.072 4630.79 871.006C4836.91 889.732 5019.74 709.889 5194.45 383.541C5360.24 55.2696 5512.09 -426.128 5687.75 -677.793C5867 -929.852 6071.49 -952.335 6171.94 -963.38L6272.4 -974.424L6499.57 1091.76L6398.4 1102.88C6297.23 1114 6097.76 1135.93 5889.68 1158.81C5689.5 1180.82 5487.88 1202.99 5286.98 1225.08C5081.77 1247.64 4877.99 1270.05 4677.09 1292.13C4473.32 1314.54 4268.11 1337.1 4067.21 1359.19C3865.59 1381.36 3665.4 1403.37 3457.32 1426.25C3257.85 1448.18 3055.52 1470.42 2854.61 1492.51C2650.12 1515 2445.63 1537.48 2244.73 1559.57C2042.39 1581.81 1842.92 1603.75 1634.85 1626.62C1434.66 1648.63 1233.04 1670.8 1032.14 1692.89C826.929 1715.45 623.156 1737.86 422.253 1759.95C219.197 1782.27 13.2715 1804.91 -187.631 1827C-388.534 1849.09 -589.438 1871.18 -790.34 1893.27C-996.266 1915.91 -1199.32 1938.24 -1400.22 1960.32C-1604 1982.73 -1809.21 2005.29 -2010.11 2027.38C-2211.73 2049.55 -2411.91 2071.56 -2619.99 2094.44C-2819.46 2116.37 -3021.8 2138.61 -3222.7 2160.7C-3427.19 2183.19 -3631.68 2205.67 -3732.13 2216.71L-3832.59 2227.76L-3984.03 850.305Z" fill="url(#paint0_linear_188_8021)"/>
<path opacity="0.7" d="M-4043.28 850.73L-3925.31 992.417C-3807.02 1136.98 -3574.42 1416.36 -3345.05 1587.19C-3123.56 1758.88 -2914.06 1808.46 -2725.54 1673.73C-2533.19 1534.23 -2362.54 1210.51 -2166.13 1147.53C-1966.54 1087.1 -1736.09 1294.11 -1514.13 1463.57C-1291.76 1630.09 -1074.22 1765.91 -874.823 1664.12C-684.032 1563.27 -514.823 1239.71 -335.218 1023.91C-152.025 807.724 44.578 713.498 245.244 689.257C447.819 669.163 655.175 718.974 846.688 545.437C1030.31 372.768 1189.33 -36.8083 1390.47 -56.745C1595.45 -81.4596 1841.81 283.545 2059.28 412.115C2278.9 540.448 2476.94 446.065 2656.54 230.271C2836.15 14.4779 3003.92 -308.929 3208.77 -295.147C3418.64 -281.917 3664.29 83.1665 3898.56 364.548C4136.01 648.483 4366.46 855.496 4571.55 871.431C4777.66 890.156 4960.5 710.313 5135.21 383.965C5300.99 55.6939 5452.85 -425.704 5628.51 -677.368C5807.76 -929.427 6012.25 -951.911 6112.7 -962.955L6213.15 -974L6440.33 1092.18L6339.16 1103.3C6237.99 1114.43 6038.52 1136.36 5830.44 1159.24C5630.26 1181.25 5428.64 1203.41 5227.73 1225.5C5022.53 1248.07 4818.75 1270.47 4617.85 1292.56C4414.08 1314.96 4208.87 1337.53 4007.97 1359.61C3806.35 1381.78 3606.16 1403.79 3398.08 1426.67C3198.61 1448.6 2996.28 1470.85 2795.37 1492.94C2590.88 1515.42 2386.39 1537.9 2185.49 1559.99C1983.15 1582.24 1783.68 1604.17 1575.6 1627.05C1375.42 1649.06 1173.8 1671.23 972.896 1693.32C767.687 1715.88 563.914 1738.28 363.011 1760.37C159.956 1782.7 -45.9697 1805.34 -246.873 1827.43C-447.776 1849.52 -648.679 1871.6 -849.582 1893.69C-1055.51 1916.33 -1258.56 1938.66 -1459.47 1960.75C-1663.24 1983.15 -1868.45 2005.72 -2069.35 2027.8C-2270.97 2049.97 -2471.16 2071.98 -2679.23 2094.86C-2878.7 2116.79 -3081.04 2139.04 -3281.94 2161.13C-3486.43 2183.61 -3690.92 2206.09 -3791.38 2217.14L-3891.83 2228.18L-4043.28 850.73Z" fill="url(#paint1_linear_188_8021)"/>
<path opacity="0.5" d="M-4120.28 850.73L-4002.31 992.417C-3884.02 1136.98 -3651.42 1416.36 -3422.05 1587.19C-3200.56 1758.88 -2991.06 1808.46 -2802.54 1673.73C-2610.19 1534.23 -2439.54 1210.51 -2243.13 1147.53C-2043.54 1087.1 -1813.09 1294.11 -1591.13 1463.57C-1368.76 1630.09 -1151.22 1765.91 -951.823 1664.12C-761.032 1563.27 -591.823 1239.71 -412.218 1023.91C-229.025 807.724 -32.422 713.498 168.244 689.257C370.819 669.163 578.175 718.974 769.688 545.437C953.309 372.768 1112.33 -36.8083 1313.47 -56.745C1518.45 -81.4596 1764.81 283.545 1982.28 412.115C2201.9 540.448 2399.94 446.065 2579.54 230.271C2759.15 14.4779 2926.92 -308.929 3131.77 -295.147C3341.64 -281.917 3587.29 83.1665 3821.56 364.548C4059.01 648.483 4289.46 855.496 4494.55 871.431C4700.66 890.156 4883.5 710.313 5058.21 383.965C5223.99 55.6939 5375.85 -425.704 5551.51 -677.368C5730.76 -929.427 5935.25 -951.911 6035.7 -962.955L6136.15 -974L6363.33 1092.18L6262.16 1103.3C6160.99 1114.43 5961.52 1136.36 5753.44 1159.24C5553.26 1181.25 5351.64 1203.41 5150.73 1225.5C4945.53 1248.07 4741.75 1270.47 4540.85 1292.56C4337.08 1314.96 4131.87 1337.53 3930.97 1359.61C3729.35 1381.78 3529.16 1403.79 3321.08 1426.67C3121.61 1448.6 2919.28 1470.85 2718.37 1492.94C2513.88 1515.42 2309.39 1537.9 2108.49 1559.99C1906.15 1582.24 1706.68 1604.17 1498.6 1627.05C1298.42 1649.06 1096.8 1671.23 895.896 1693.32C690.687 1715.88 486.914 1738.28 286.011 1760.37C82.9559 1782.7 -122.97 1805.34 -323.873 1827.43C-524.776 1849.52 -725.679 1871.6 -926.582 1893.69C-1132.51 1916.33 -1335.56 1938.66 -1536.47 1960.75C-1740.24 1983.15 -1945.45 2005.72 -2146.35 2027.8C-2347.97 2049.97 -2548.16 2071.98 -2756.23 2094.86C-2955.7 2116.79 -3158.04 2139.04 -3358.94 2161.13C-3563.43 2183.61 -3767.92 2206.09 -3868.38 2217.14L-3968.83 2228.18L-4120.28 850.73Z" fill="url(#paint2_linear_188_8021)"/>
<defs>
<linearGradient id="paint0_linear_188_8021" x1="1106.32" y1="-406.423" x2="1333.49" y2="1659.76" gradientUnits="userSpaceOnUse">
<stop stop-color="#FDED4F"/>
<stop offset="1" stop-color="#FFB649"/>
</linearGradient>
<linearGradient id="paint1_linear_188_8021" x1="1047.08" y1="-405.998" x2="1274.25" y2="1660.18" gradientUnits="userSpaceOnUse">
<stop stop-color="#FDED4F"/>
<stop offset="1" stop-color="#FFB649"/>
</linearGradient>
<linearGradient id="paint2_linear_188_8021" x1="970.077" y1="-405.998" x2="1197.25" y2="1660.18" gradientUnits="userSpaceOnUse">
<stop stop-color="#FDED4F"/>
<stop offset="1" stop-color="#FFB649"/>
</linearGradient>
</defs>
</svg>
